<svg xmlns="http://www.w3.org/2000/svg" width="19.011" height="18.008" viewBox="0 0 19.011 18.008">
  <g id="speaker-svgrepo-com" transform="translate(0 -30.111)">
    <g id="Group_1" data-name="Group 1" transform="translate(0 30.111)">
      <path id="Path_1" data-name="Path 1" d="M820.227,30.111l-1.639,1.638a10.43,10.43,0,0,1,0,14.734l1.639,1.636A12.747,12.747,0,0,0,820.227,30.111Z" transform="translate(-804.939 -30.111)" fill="#00dbd3"/>
      <path id="Path_2" data-name="Path 2" d="M672.944,177.378l-1.638,1.636a6.954,6.954,0,0,1,0,9.823l1.637,1.637A9.268,9.268,0,0,0,672.944,177.378Z" transform="translate(-660.113 -174.922)" fill="#00dbd3"/>
      <path id="Path_3" data-name="Path 3" d="M525.771,324.722l-1.637,1.637a3.478,3.478,0,0,1,0,4.91l1.637,1.637A5.794,5.794,0,0,0,525.771,324.722Z" transform="translate(-515.394 -319.81)" fill="#00dbd3"/>
      <path id="Path_4" data-name="Path 4" d="M6.617,207.232V202.5l-4.269,4.268H0v3.722H2.348l4.269,4.269v-4.734a1.4,1.4,0,0,0,0-2.792Z" transform="translate(0 -199.625)" fill="#00dbd3"/>
    </g>
  </g>
</svg>
